<svg id="Capa_1" data-name="Capa 1" xmlns="http://www.w3.org/2000/svg" viewBox="0 0 383.34 310.8"><title>Curiosas-Creaciones3</title><g id="freepik--otter-1--inject-14"><path d="M266.71,292.49a47.3,47.3,0,0,1-24.34,13.31c-15,2.8-17.6,8-8.42,11.28,13,4.63,39.06-6.3,56.94-13.58C291.11,298,278.92,292.73,266.71,292.49Z" transform="translate(-11.18 -7.38)" fill="#407bff"/><path d="M266.71,292.49a47.3,47.3,0,0,1-24.34,13.31c-15,2.8-17.6,8-8.42,11.28,13,4.63,39.06-6.3,56.94-13.58C291.11,298,278.92,292.73,266.71,292.49Z" transform="translate(-11.18 -7.38)" opacity="0.2" style="isolation:isolate"/><path d="M169.65,228c-6,8.71-14.27,33.07-19.76,25.82s-25.11-1.81-25.46,9.72,10.3-5.8,23.19,3.18,38.8,2.53,52-4.73S169.65,228,169.65,228Z" transform="translate(-11.18 -7.38)" fill="#407bff"/><path d="M169.65,228c-6,8.71-14.27,33.07-19.76,25.82s-25.11-1.81-25.46,9.72,10.3-5.8,23.19,3.18,38.8,2.53,52-4.73S169.65,228,169.65,228Z" transform="translate(-11.18 -7.38)" opacity="0.2" style="isolation:isolate"/><path d="M359,254.28c-1.3-2.3-6-2.58-14.06,4.33l8.5,4.43S360.26,256.57,359,254.28Z" transform="translate(-11.18 -7.38)" fill="#407bff"/><path d="M359,254.28c-1.3-2.3-6-2.58-14.06,4.33l8.5,4.43S360.26,256.57,359,254.28Z" transform="translate(-11.18 -7.38)" opacity="0.2" style="isolation:isolate"/><path d="M96.14,206.21c51.1-11.27,82.93,9,128.21,34.39s72.27,21,96.07,18.49c20-8.38,41.47.73,42.87,12.49s-1,28.57-58.06,35.81c-63.16,8-89.22-14.28-117.11-33.68s-47.35-45.46-81.91-41.17S27.09,223,13.34,177.41C2.87,142.72,32.55,122.52,57.57,120.2a1.36,1.36,0,1,1,.42,2.69c-22,4.78-42.71,19-29.3,53.66C40,205.8,77.9,208.31,96.14,206.21Z" transform="translate(-11.18 -7.38)" fill="#407bff"/><path d="M338.18,253.81c1.22-1.94,7.42,1.75,11.6,4.69l-8.75-.85S337,255.75,338.18,253.81Z" transform="translate(-11.18 -7.38)" fill="#407bff"/><path d="M330.93,254.24c.76-1.71,6.18.55,9.9,2.44l-7.12.29S330.16,256,330.93,254.24Z" transform="translate(-11.18 -7.38)" fill="#407bff"/><path d="M237.6,297c.86-9.81-59.66-32.64-77.31-51.14-7.58-7.86-15.95-10.75-21.58-7.86,17.13,8.16,31.54,23.32,49.39,35.74,15.17,10.56,29.8,22,50.16,28.89Z" transform="translate(-11.18 -7.38)" fill="#fff" opacity="0.5" style="isolation:isolate"/><path d="M311.48,266.56c.27-2.37,4.37-4.9,14.57-2,.32,4.11-2.18,7.38-5.82,7.61C320.23,272.12,311.09,270,311.48,266.56Z" transform="translate(-11.18 -7.38)" fill="#407bff"/><path d="M311.48,266.56c.27-2.37,4.37-4.9,14.57-2,.32,4.11-2.18,7.38-5.82,7.61C320.23,272.12,311.09,270,311.48,266.56Z" transform="translate(-11.18 -7.38)" opacity="0.4" style="isolation:isolate"/><path d="M313.39,268.6a2.13,2.13,0,0,0,.11.9,25.57,25.57,0,0,0,6.73,2.62c3.17-.19,5.47-2.7,5.8-6.07C317.24,264,313.63,266.38,313.39,268.6Z" transform="translate(-11.18 -7.38)" fill="#407bff" opacity="0.5" style="isolation:isolate"/><path d="M338.91,276.3c1,1.55,1.26,3.2.51,3.71s-2.2-.34-3.24-1.88-1.26-3.2-.51-3.7S337.87,274.76,338.91,276.3Z" transform="translate(-11.18 -7.38)" fill="#263238"/><path d="M358.35,270.68c.76,1.69.71,3.36-.11,3.73s-2.12-.69-2.88-2.38-.72-3.37.11-3.74S357.58,269,358.35,270.68Z" transform="translate(-11.18 -7.38)" fill="#263238"/><path d="M355.5,284.89a1.69,1.69,0,1,1-1.45,2.24A1.93,1.93,0,0,1,355.5,284.89Z" transform="translate(-11.18 -7.38)" fill="#263238"/><path d="M359.25,278.09l-13.82,3.75c-6.4,2.24-7.07,9.46,2.16,7.74,5.74-1.06,7.87-2.3,8.13-4.14.9.84,2.43.86,5.17-.08C366.27,283.51,363.36,277.69,359.25,278.09Z" transform="translate(-11.18 -7.38)" fill="#407bff"/><path d="M359.25,278.09l-13.82,3.75c-6.4,2.24-7.07,9.46,2.16,7.74,5.74-1.06,7.87-2.3,8.13-4.14.9.84,2.43.86,5.17-.08C366.27,283.51,363.36,277.69,359.25,278.09Z" transform="translate(-11.18 -7.38)" fill="#fff" opacity="0.2" style="isolation:isolate"/><path d="M363.8,282.62a.38.38,0,0,0-.49.21c-.72,1.81-3.19,2.4-4.22,2.58a5.66,5.66,0,0,1-3-.11A6.08,6.08,0,0,0,355,282a.38.38,0,0,0-.65.38h0a5.29,5.29,0,0,1,1,3,2.94,2.94,0,0,1-1.05,1.27c-1,.82-4.73,3.42-11.58,2.4a.38.38,0,0,0-.42.31.39.39,0,0,0,.31.43,19.15,19.15,0,0,0,7-.15,12,12,0,0,0,5.43-2.6,4.7,4.7,0,0,0,.92-1.07,5.13,5.13,0,0,0,1.74.25,11,11,0,0,0,2.14-.26c1.7-.37,3.54-1.23,4.22-2.92A.37.37,0,0,0,363.8,282.62Z" transform="translate(-11.18 -7.38)" fill="#407bff"/><path d="M363.8,282.62a.38.38,0,0,0-.49.21c-.72,1.81-3.19,2.4-4.22,2.58a5.66,5.66,0,0,1-3-.11A6.08,6.08,0,0,0,355,282a.38.38,0,0,0-.65.38h0a5.29,5.29,0,0,1,1,3,2.94,2.94,0,0,1-1.05,1.27c-1,.82-4.73,3.42-11.58,2.4a.38.38,0,0,0-.42.31.39.39,0,0,0,.31.43,19.15,19.15,0,0,0,7-.15,12,12,0,0,0,5.43-2.6,4.7,4.7,0,0,0,.92-1.07,5.13,5.13,0,0,0,1.74.25,11,11,0,0,0,2.14-.26c1.7-.37,3.54-1.23,4.22-2.92A.37.37,0,0,0,363.8,282.62Z" transform="translate(-11.18 -7.38)" opacity="0.2" style="isolation:isolate"/><path d="M344.44,280.73c1-2.1,14.89-6.15,15.19-3.38.24,2.22-3.38,1.48-4,4.7-.44,2.24-3.94-1-6.44-.27S343.08,283.47,344.44,280.73Z" transform="translate(-11.18 -7.38)" fill="#407bff"/><path d="M344.44,280.73c1-2.1,14.89-6.15,15.19-3.38.24,2.22-3.38,1.48-4,4.7-.44,2.24-3.94-1-6.44-.27S343.08,283.47,344.44,280.73Z" transform="translate(-11.18 -7.38)" fill="#fff" opacity="0.5" style="isolation:isolate"/><path d="M328.93,275.67h-.12a1.51,1.51,0,0,1-1.38-1.59,5.5,5.5,0,0,1,5.43-5.13,1.5,1.5,0,1,1,.15,3,2.49,2.49,0,0,0-2.59,2.35A1.49,1.49,0,0,1,328.93,275.67Z" transform="translate(-11.18 -7.38)" fill="#fff" opacity="0.15" style="isolation:isolate"/><path d="M357.09,267.42a1.54,1.54,0,0,1-.94-.33,3.55,3.55,0,0,0-4-.5,1.5,1.5,0,0,1-1.57-2.56,6.54,6.54,0,0,1,7.48.71,1.5,1.5,0,0,1-.93,2.68Z" transform="translate(-11.18 -7.38)" fill="#fff" opacity="0.15" style="isolation:isolate"/><path d="M240.71,287.27s-18,12.31-33.25,12-18.87,4.21-10.56,9.3c11.73,7.21,39.52,1.88,58.51-1.55C256.82,301.58,252.65,290,240.71,287.27Z" transform="translate(-11.18 -7.38)" fill="#407bff"/><path d="M143.8,222.11c-3,10.11-22.35,21.2-31,18.3s-26.57,12.81-19.93,22.25c5,7.06,5.23-10.6,20.94-10.45s44.58,12.34,56.9,3.76C191.33,241.65,143.8,222.11,143.8,222.11Z" transform="translate(-11.18 -7.38)" fill="#407bff"/><path d="M345.71,285.63h-.11c-.07,0-7.15-3.21-12.54-.41a.24.24,0,0,1-.34-.07.25.25,0,0,1,.06-.35l.05,0c5.61-2.92,12.69.26,13,.4a.24.24,0,0,1,.13.33h0A.29.29,0,0,1,345.71,285.63Z" transform="translate(-11.18 -7.38)" fill="#263238"/><path d="M329,291a.27.27,0,0,1-.18-.08.25.25,0,0,1,0-.36h0c4.63-4.27,13.18-4.49,13.54-4.5a.23.23,0,0,1,.26.22v0a.25.25,0,0,1-.25.25c-.08,0-8.72.23-13.21,4.37A.24.24,0,0,1,329,291Z" transform="translate(-11.18 -7.38)" fill="#263238"/><path d="M359.47,281.26h-.12a.26.26,0,0,1-.1-.34h0A8.5,8.5,0,0,1,368.2,277a.24.24,0,0,1,.19.29h0a.25.25,0,0,1-.29.19,8,8,0,0,0-8.41,3.69A.23.23,0,0,1,359.47,281.26Z" transform="translate(-11.18 -7.38)" fill="#263238"/><path d="M360.83,283a.27.27,0,0,1-.2-.09.25.25,0,0,1,0-.34h0a18.24,18.24,0,0,1,13.28-3.29.25.25,0,0,1,.21.29.27.27,0,0,1-.3.21,17.7,17.7,0,0,0-12.88,3.18A.28.28,0,0,1,360.83,283Z" transform="translate(-11.18 -7.38)" fill="#263238"/></g><g id="freepik--otter-2--inject-14"><path d="M179.33,10.92c-1.44-2-6.19-2.41-13.29,4.92,1.86,3.87,5.64,5.68,8.81,4.19C174.85,20,181.45,13.88,179.33,10.92Z" transform="translate(-11.18 -7.38)" fill="#407bff"/><path d="M179.33,10.92c-1.44-2-6.19-2.41-13.29,4.92,1.86,3.87,5.64,5.68,8.81,4.19C174.85,20,181.45,13.88,179.33,10.92Z" transform="translate(-11.18 -7.38)" opacity="0.4" style="isolation:isolate"/><path d="M178.78,13.66a1.94,1.94,0,0,1,.37.87,22.7,22.7,0,0,1-4.3,5.5c-2.76,1.3-6,.09-8-2.81C173.19,11.3,177.43,11.76,178.78,13.66Z" transform="translate(-11.18 -7.38)" fill="#407bff" opacity="0.5" style="isolation:isolate"/><path d="M277.53,167.05c7.88-7,30.15-6.32,36,.67s29.33,3,28.64-8.48c-.52-8.61-10,6.28-23.32-2.09s-31.47-33.93-46.47-33.06C247.32,125.47,277.53,167.05,277.53,167.05Z" transform="translate(-11.18 -7.38)" fill="#407bff"/><path d="M302.87,154.84c-13.89-15.78-29-26.74-33.51-25.85-15,6.94,8.17,38.06,8.17,38.06,6-5.36,20.39-6.22,29.46-3.22A16.93,16.93,0,0,0,302.87,154.84Z" transform="translate(-11.18 -7.38)" opacity="0.2" style="isolation:isolate"/><path d="M186.22,90.82s21.67,2.73,32.84,13.05,17.87,9,14.08,0C225.42,85.59,201.46,79.34,187,60.46c-2.77,1.86-4.21,12.51-4.45,18.2A19.34,19.34,0,0,0,186.22,90.82Z" transform="translate(-11.18 -7.38)" fill="#407bff"/><path d="M186.66,60.74c-2.56,2.42-3.9,12.46-4.13,17.94a19.37,19.37,0,0,0,3.69,12.15A87.45,87.45,0,0,1,208.08,97C197.62,86.22,190.64,72.09,186.66,60.74Z" transform="translate(-11.18 -7.38)" opacity="0.2" style="isolation:isolate"/><path d="M312.15,181.27c-28.28-42.57-27.28-57.41-69.7-63.1-42.11-5.65-56.19-49.83-57.28-71a46.94,46.94,0,0,0-3.37-15.74c-8.24-19.79-25.41-24.21-40.54-16.84-8.72,4.24-22.44,13.69-9.36,44.53,2.89,6.82,5,18.66,7.7,28.72,16.48,61.49,45.9,76.7,78.74,85.37,31.58,8.33,35.39,1.39,74.74,37.31,26.06,23.79,82.16,6.68,98-30.33C404,150,379,119.07,341.85,123c25,5,51.5,30.36,33.78,51.6C363.05,189.69,327,203.59,312.15,181.27Z" transform="translate(-11.18 -7.38)" fill="#407bff"/><path d="M293,161.22c-15.12-25-19.19-31.74-48.21-35.64s-46.24-23-55.81-42.85a18.36,18.36,0,0,0-23.14-9.21h0a18.41,18.41,0,0,0-10.56,23.79c.09.25.2.5.3.75,19,43.95,44.23,56.45,69,63,6.47,1.7,11.79,2.76,16.49,3.68,18.15,3.58,28.35,6.35,52.58,27.16a8,8,0,0,0,11.29-.84,7.89,7.89,0,0,0,1.71-3.34h0a8,8,0,0,0-1.08-6.3C300.58,173.75,296.57,167.12,293,161.22Z" transform="translate(-11.18 -7.38)" fill="#fff" opacity="0.5" style="isolation:isolate"/><path d="M122.46,19.33c1-2.26,5.64-3.53,14,2.33-1.09,4.16-4.47,6.64-7.86,5.77C128.57,27.43,121,22.63,122.46,19.33Z" transform="translate(-11.18 -7.38)" fill="#407bff"/><path d="M122.46,19.33c1-2.26,5.64-3.53,14,2.33-1.09,4.16-4.47,6.64-7.86,5.77C128.57,27.43,121,22.63,122.46,19.33Z" transform="translate(-11.18 -7.38)" opacity="0.4" style="isolation:isolate"/><path d="M123.52,21.91a2.21,2.21,0,0,0-.21.92,23.32,23.32,0,0,0,5.26,4.6c3,.76,5.9-1,7.33-4.26C128.56,18.54,124.49,19.79,123.52,21.91Z" transform="translate(-11.18 -7.38)" fill="#407bff" opacity="0.5" style="isolation:isolate"/><path d="M150.79,33c.81,1.7.75,3.39-.15,3.79s-2.28-.67-3.09-2.36-.74-3.39.15-3.79S150,31.28,150.79,33Z" transform="translate(-11.18 -7.38)" fill="#263238"/><path d="M171.09,31.33c.28,1.85-.28,3.48-1.25,3.63s-2-1.23-2.26-3.08.28-3.48,1.24-3.63S170.8,29.48,171.09,31.33Z" transform="translate(-11.18 -7.38)" fill="#263238"/><path d="M165,45.4c3.15-.55,5.83-.26,6,.64s-2.28,2.07-5.43,2.62-5.83.25-6-.65S161.87,45.94,165,45.4Z" transform="translate(-11.18 -7.38)" fill="#263238"/><path d="M170.28,39.14l-15.41,1.71c-7.23,1.29-9.29,8.41.86,8.07,6.29-.22,8.79-1.14,9.42-2.94.8,1,2.42,1.22,5.52.68C176.74,45.61,174.73,39.35,170.28,39.14Z" transform="translate(-11.18 -7.38)" fill="#407bff"/><path d="M170.28,39.14l-15.41,1.71c-7.23,1.29-9.29,8.41.86,8.07,6.29-.22,8.79-1.14,9.42-2.94.8,1,2.42,1.22,5.52.68C176.74,45.61,174.73,39.35,170.28,39.14Z" transform="translate(-11.18 -7.38)" fill="#fff" opacity="0.2" style="isolation:isolate"/><path d="M174.28,44.35a.42.42,0,0,0-.56.14c-1.11,1.7-3.85,1.93-5,2a6.3,6.3,0,0,1-3.17-.55,5.65,5.65,0,0,0-.58-3.43.4.4,0,0,0-.52-.2.38.38,0,0,0-.23.48v0a4.91,4.91,0,0,1,.51,3.17c0,.13-.41.58-1.35,1.11-1.2.68-5.68,2.72-12.77.69a.42.42,0,0,0-.52.25.38.38,0,0,0,.25.47h0a21.74,21.74,0,0,0,7.43.87A14,14,0,0,0,164,47.59a5.42,5.42,0,0,0,1.18-.94,5.7,5.7,0,0,0,1.8.51,13,13,0,0,0,2.33.06c1.88-.12,4-.71,5-2.3a.35.35,0,0,0,0-.51A.16.16,0,0,0,174.28,44.35Z" transform="translate(-11.18 -7.38)" fill="#407bff"/><path d="M174.28,44.35a.42.42,0,0,0-.56.14c-1.11,1.7-3.85,1.93-5,2a6.3,6.3,0,0,1-3.17-.55,5.65,5.65,0,0,0-.58-3.43.4.4,0,0,0-.52-.2.38.38,0,0,0-.23.48v0a4.91,4.91,0,0,1,.51,3.17c0,.13-.41.58-1.35,1.11-1.2.68-5.68,2.72-12.77.69a.42.42,0,0,0-.52.25.38.38,0,0,0,.25.47h0a21.74,21.74,0,0,0,7.43.87A14,14,0,0,0,164,47.59a5.42,5.42,0,0,0,1.18-.94,5.7,5.7,0,0,0,1.8.51,13,13,0,0,0,2.33.06c1.88-.12,4-.71,5-2.3a.35.35,0,0,0,0-.51A.16.16,0,0,0,174.28,44.35Z" transform="translate(-11.18 -7.38)" opacity="0.2" style="isolation:isolate"/><path d="M154,39.58c1.5-2,17-3.94,16.79-1.13-.16,2.26-3.87,1-5.15,4.12-.89,2.17-4-1.55-6.8-1.23S152.07,42.13,154,39.58Z" transform="translate(-11.18 -7.38)" fill="#407bff"/><path d="M154,39.58c1.5-2,17-3.94,16.79-1.13-.16,2.26-3.87,1-5.15,4.12-.89,2.17-4-1.55-6.8-1.23S152.07,42.13,154,39.58Z" transform="translate(-11.18 -7.38)" fill="#fff" opacity="0.5" style="isolation:isolate"/><path d="M138.74,32.22a2.35,2.35,0,0,1-.37,0,1.5,1.5,0,0,1-1.08-1.81v0a6,6,0,0,1,6.56-4.26,1.51,1.51,0,1,1-.29,3h0a3,3,0,0,0-3.37,2A1.51,1.51,0,0,1,138.74,32.22Z" transform="translate(-11.18 -7.38)" fill="#fff" opacity="0.15" style="isolation:isolate"/><path d="M175,27.22a1.54,1.54,0,0,1-1.08-.46,4.16,4.16,0,0,0-4.38-1.11,1.5,1.5,0,1,1-1.11-2.79h0a7.16,7.16,0,0,1,7.65,1.82,1.49,1.49,0,0,1,0,2.12A1.59,1.59,0,0,1,175,27.22Z" transform="translate(-11.18 -7.38)" fill="#fff" opacity="0.15" style="isolation:isolate"/><path d="M146.31,55.3h0a.26.26,0,0,1-.22-.28h0c.83-6.37,8-10.63,8.29-10.81a.25.25,0,0,1,.34.09.26.26,0,0,1-.09.35c-.07,0-7.25,4.31-8,10.44a.25.25,0,0,1-.29.21Z" transform="translate(-11.18 -7.38)" fill="#263238"/><path d="M149.08,61.83a.28.28,0,0,1-.25-.21c-1-6.29,4-13.68,4.26-14a.25.25,0,0,1,.41.29c0,.07-5.13,7.54-4.18,13.63a.25.25,0,0,1-.2.28Z" transform="translate(-11.18 -7.38)" fill="#263238"/><path d="M181.15,48.88a.42.42,0,0,1-.18-.08c-4.08-4.46-11.34-6.33-11.41-6.35a.26.26,0,0,1-.18-.31.24.24,0,0,1,.3-.18c.08,0,7.48,1.93,11.66,6.5a.25.25,0,0,1,0,.36A.31.31,0,0,1,181.15,48.88Z" transform="translate(-11.18 -7.38)" fill="#263238"/><path d="M178,54.69a.27.27,0,0,1-.24-.17c-2.27-7.12-9.12-10-9.19-10.07a.27.27,0,0,1-.13-.33.26.26,0,0,1,.33-.15h0c.07,0,7.12,3,9.47,10.39a.26.26,0,0,1-.16.31Z" transform="translate(-11.18 -7.38)" fill="#263238"/><path d="M148.61,106.31s21.45,4.11,31.93,15.13,17.25,10.14,14,.94c-6.52-18.75-30-26.53-43.27-46.31-2.87,1.69-5,12.22-5.61,17.89A19.28,19.28,0,0,0,148.61,106.31Z" transform="translate(-11.18 -7.38)" fill="#407bff"/><path d="M258.68,158.33l-5.26,23.44a65.43,65.43,0,0,1,11.05,5.74C265.21,176.53,262.93,162.14,258.68,158.33Z" transform="translate(-11.18 -7.38)" opacity="0.2" style="isolation:isolate"/><path d="M225.82,156.44a11.21,11.21,0,0,0,.77,15.82,11.41,11.41,0,0,0,4.4,2.46c11.88,3.45,21.19,4.55,18.52,26.1-1.11,9,15.11,25.32,23.92,17.88,6.6-5.56-11-4.28-12.26-19.94s6-41-6-50.09C244.52,140.59,233.66,147.86,225.82,156.44Z" transform="translate(-11.18 -7.38)" fill="#407bff"/><path d="M151.77,7.88c-2.07-2.31-9.49,4-14.4,8.86l11.46-3.1S153.84,10.22,151.77,7.88Z" transform="translate(-11.18 -7.38)" fill="#407bff"/><path d="M160.24,8.22c-1.49-2.37-9,2.13-14.14,5.71l10.66-1S161.74,10.54,160.24,8.22Z" transform="translate(-11.18 -7.38)" fill="#407bff"/></g><path d="M229.81,74.4l-1.07-.82a6.57,6.57,0,0,1-.88,1,5.86,5.86,0,0,1-1.09.76l.82,1.51-1,.5-.81-1.52a7.25,7.25,0,0,1-3.14.47l-.49,1.87L220.83,78l.46-2a7.39,7.39,0,0,1-1.79-.74,6,6,0,0,1-1.41-1.11l-1.6,1.43-.82-1.07,1.57-1.19a12,12,0,0,1-.77-1,10.46,10.46,0,0,1-.63-1L214,72l-.34-1.29,1.64-.67a7.59,7.59,0,0,1-.35-1.57,10.7,10.7,0,0,1-.06-1.71l-2-.33.13-1.16,2,.25a11.33,11.33,0,0,1,.75-2.38,12.59,12.59,0,0,1,1.35-2.29l-1.71-.91.53-1.24,2,1.15a17.27,17.27,0,0,1,1.75-1.68,15.64,15.64,0,0,1,2-1.37L221,54.72l1.34-.41.57,1.84c.53-.21,1-.39,1.51-.53a13.47,13.47,0,0,1,1.39-.35l0-2.22h1.22l0,2.05a13.6,13.6,0,0,1,1.81,0,9.07,9.07,0,0,1,1.63.29l.73-1.63,1.27.63-.83,1.44a7.84,7.84,0,0,1,.86.45,6.59,6.59,0,0,1,.82.56,5.37,5.37,0,0,1,.76.66,6.88,6.88,0,0,1,.64.77l1.36-1.12.75.94-1.62,1.18a6,6,0,0,1,.33,1.37,6.9,6.9,0,0,1,0,1.51l1.58.09-.12,1.38-1.67-.21c-.08.36-.17.69-.26,1a6.83,6.83,0,0,1-.26.74l-1.44-.38a7.53,7.53,0,0,0-.31-3.45,5.42,5.42,0,0,0-1.88-2.51,6,6,0,0,0-2.47-1.13,6.48,6.48,0,0,0-2.85.14,8,8,0,0,0-2.56,1.14,8.51,8.51,0,0,0-2,1.94,10.15,10.15,0,0,0-1.48,2.61,7.29,7.29,0,0,0-.47,2.66,6.05,6.05,0,0,0,.65,2.71A6.79,6.79,0,0,0,221.94,71a5,5,0,0,0,3.53,1.11,4.31,4.31,0,0,0,3.13-1.82l1.36.39a4.81,4.81,0,0,1-.23,1,8.13,8.13,0,0,1-.42,1l1.15.88Z" transform="translate(-11.18 -7.38)" fill="#407bff"/><path d="M235.31,93.94l-2.86-4,2.78-2a8.3,8.3,0,0,1-3.39,0,5,5,0,0,1-2.43-1.4,3.66,3.66,0,0,1-1-3,8.56,8.56,0,0,1,1.73-3.88l1,.64.71-.76-1.14-.68.81-1.11,1.15.69.65-.71-1.21-.82.87-1.21,1.26.86.63-.8-1.26-.9.68-.93,4.54,3.4-4.07,3.68-1.44,1.3a5.81,5.81,0,0,0-1.59,2.11,1.39,1.39,0,0,0,.28,1.54,3,3,0,0,0,2,.8,11.76,11.76,0,0,0,3.41-.35l5.52-4.11,1.94,1.86Zm5.48-12.45a25.83,25.83,0,0,0-3.44,1.34,23.31,23.31,0,0,0-3.13,1.76l-.45-1.2a34.32,34.32,0,0,1,3.69-1.64,23.14,23.14,0,0,1,3.5-1Z" transform="translate(-11.18 -7.38)" fill="#407bff"/><path d="M258.09,97.65l-1.45-.42a3.05,3.05,0,0,0-.2.3,2.45,2.45,0,0,1-.21.3,3,3,0,0,1-.48.52,2.19,2.19,0,0,1-.56.35l.49,1.47-1.1.16-.37-1.39a3.06,3.06,0,0,1-.68,0,7.58,7.58,0,0,1-.76-.08V97.59a2.07,2.07,0,0,0,.62-.26,1.73,1.73,0,0,0,.44-.41,1.06,1.06,0,0,0,.2-1,2,2,0,0,0-.81-1,2.89,2.89,0,0,0-2.13-.36,13.55,13.55,0,0,0-3.47,1.06l-4.6,6.61-3.6-3.58,10-9.75,2.15,1-2.47,3.55c.52-.17,1-.3,1.43-.4a10.82,10.82,0,0,1,1.21-.22l.34-1.52,1.1.18-.29,1.29a7.08,7.08,0,0,1,1.15.21,5,5,0,0,1,1.06.4l.9-1.15.8.71-1,1a3.05,3.05,0,0,1,.91,1.13,2.21,2.21,0,0,1,.17,1.27l1.49.23Zm-14.2,1.43a1.22,1.22,0,0,0,.24-.9,1.15,1.15,0,0,0-.47-.79,1.16,1.16,0,0,0-.89-.21,1.18,1.18,0,0,0-.81.49,1.25,1.25,0,0,0-.29.9,1.27,1.27,0,0,0,.56.77,1.19,1.19,0,0,0,.9.29A1.22,1.22,0,0,0,243.89,99.08Zm2.18-2.84a1,1,0,0,0,.23-.7,1,1,0,0,0-.45-.63.9.9,0,0,0-.7-.21.91.91,0,0,0-.6.42.82.82,0,0,0,.2,1.29,1,1,0,0,0,.72.25A.91.91,0,0,0,246.07,96.24Z" transform="translate(-11.18 -7.38)" fill="#407bff"/><path d="M261.59,112.11l-5.53-2.85,7-12.63,2.59.94Zm-.41-4a1.33,1.33,0,0,0-.82-1.73,1.27,1.27,0,0,0-1,0,1.31,1.31,0,0,0-.7.76,1.25,1.25,0,0,0,.05,1,1.27,1.27,0,0,0,.75.69,1.3,1.3,0,0,0,1,0A1.25,1.25,0,0,0,261.18,108.14Zm1.36-3.73a1.11,1.11,0,0,0,0-.82,1.06,1.06,0,0,0-.65-.51,1,1,0,0,0-.84,0,1,1,0,0,0-.52.64,1.09,1.09,0,0,0,0,.83,1.13,1.13,0,0,0,.67.53,1.09,1.09,0,0,0,.83,0A1.12,1.12,0,0,0,262.54,104.41Zm5.86-9.6-.65.72-1-1.06a2,2,0,0,1-.58.25,2,2,0,0,1-.6,0L265.47,96l-1-.2.2-1.27a1.4,1.4,0,0,1-.38-.31,2.53,2.53,0,0,1-.31-.42l-1.21.51-.37-1,1.34-.38a1.39,1.39,0,0,1,0-.61,2.65,2.65,0,0,1,.27-.6l-.94-1.22.72-.58.85,1.18a1.62,1.62,0,0,1,.51-.21,1.73,1.73,0,0,1,.57-.05l.35-1.71.89.32-.5,1.53a2.73,2.73,0,0,1,.5.34,2.19,2.19,0,0,1,.38.42l1.24-.42.41.86-1.37.34a1.22,1.22,0,0,1,0,.53,6.62,6.62,0,0,1-.26.81Z" transform="translate(-11.18 -7.38)" fill="#407bff"/><path d="M285.48,106.3l-1.88.25c0,.19,0,.39,0,.6s0,.43-.06.67a9.23,9.23,0,0,1-.21,1,7.16,7.16,0,0,1-.35,1l1.37.87-.92,1.18-1-1a6.21,6.21,0,0,1-1.69,1.8,6.46,6.46,0,0,1-2.24,1l.18,1.79-1.38.15,0-1.74h-.78l-.56,0a7,7,0,0,1-1.68-.45,5.94,5.94,0,0,1-1.51-.89l-1.3,1.53-1.06-.82,1.45-1.59a6.14,6.14,0,0,1-.88-1.21,6.63,6.63,0,0,1-.57-1.4l-1.89.33-.09-1.28,1.7-.14a7.67,7.67,0,0,1-.05-1,6.22,6.22,0,0,1,.06-.91,6.09,6.09,0,0,1,.17-.87,5,5,0,0,1,.27-.8L269,103.6l.51-1.2,1.57.92a6.59,6.59,0,0,1,2.6-2.6l-.77-1.65,1.23-.62.74,1.76a6.46,6.46,0,0,1,1.44-.29,6.69,6.69,0,0,1,1.48,0,6.33,6.33,0,0,1,1.41.35,6.13,6.13,0,0,1,1.23.61l1-1.28,1,.79-1,1.3a7.13,7.13,0,0,1,1.28,1.64,8.09,8.09,0,0,1,.77,2l1.88-.54Zm-6,1a8.23,8.23,0,0,0,0-1.7,4.88,4.88,0,0,0-.38-1.49,3.41,3.41,0,0,0-.95-1.3,2.91,2.91,0,0,0-1.44-.58,3,3,0,0,0-1.53.18,3.17,3.17,0,0,0-1.26,1,5,5,0,0,0-.75,1.34,7.43,7.43,0,0,0-.41,1.64,8,8,0,0,0-.05,1.74,4.94,4.94,0,0,0,.36,1.48,3.12,3.12,0,0,0,.95,1.31,2.93,2.93,0,0,0,1.45.58,3,3,0,0,0,1.57-.17,3.05,3.05,0,0,0,1.24-1,5.84,5.84,0,0,0,.73-1.33A8,8,0,0,0,279.47,107.27Z" transform="translate(-11.18 -7.38)" fill="#407bff"/><path d="M299.08,105.6a2.67,2.67,0,0,1-1,1.58,2,2,0,0,1-1.68.11,2.38,2.38,0,0,1-1.27-.76,1.25,1.25,0,0,1-.15-1.17,1.1,1.1,0,0,1,.37-.55,1.48,1.48,0,0,1,.68-.31l.32.43a1,1,0,0,0-.22.17.41.41,0,0,0-.12.18.51.51,0,0,0,.05.46.83.83,0,0,0,.45.28.9.9,0,0,0,.73,0,1,1,0,0,0,.41-.61,1.32,1.32,0,0,0,0-.71,1.63,1.63,0,0,0-.42-.67,2.58,2.58,0,0,0-.57-.45,3.55,3.55,0,0,0-.76-.32,3.33,3.33,0,0,0-1-.15,3,3,0,0,0-.93.15,2,2,0,0,0-.81.52,2.2,2.2,0,0,0-.47.85,1.58,1.58,0,0,0,.09,1.08,4.68,4.68,0,0,0,.83,1.26c.71.83,1.25,1.45,1.63,1.88s.57.66.59.7a4.31,4.31,0,0,1,.71,1.71,3.67,3.67,0,0,1-.12,1.73,5.43,5.43,0,0,1-1.08,2,4.67,4.67,0,0,1-1.85,1.25,6.24,6.24,0,0,1-2.15.43,7.86,7.86,0,0,1-2.35-.34,6.39,6.39,0,0,1-1.48-.65,6.48,6.48,0,0,1-1.25-1,5.35,5.35,0,0,1-.95-1.3,5.16,5.16,0,0,1-.5-1.51l1.33-.66a4.79,4.79,0,0,0,1.05,2.27,4.15,4.15,0,0,0,2,1.24,2.66,2.66,0,0,0,2-.11,2.36,2.36,0,0,0,1.23-1.52,3.45,3.45,0,0,0,.1-1.47,4.78,4.78,0,0,0-.58-1.58c-.28-.47-.58-.93-.88-1.4l-.89-1.4a5,5,0,0,1-.55-1.63,3.48,3.48,0,0,1,.12-1.57,3.57,3.57,0,0,1,.91-1.56,4.05,4.05,0,0,1,1.59-.94,4.86,4.86,0,0,1,1.75-.26,7.44,7.44,0,0,1,1.91.33,7.92,7.92,0,0,1,1.46.6,4.62,4.62,0,0,1,1.06.78,2.66,2.66,0,0,1,.74,1.23A2.55,2.55,0,0,1,299.08,105.6Zm-9.43,4.11a1.78,1.78,0,1,1-1.19-2.22,1.69,1.69,0,0,1,1.05.87A1.64,1.64,0,0,1,289.65,109.71Z" transform="translate(-11.18 -7.38)" fill="#407bff"/><path d="M309.29,123.44l-.48.63a24.49,24.49,0,0,1-4.53-1.42,19.65,19.65,0,0,1-3.83-2.19,9.56,9.56,0,0,1-1.64-1.49,6.94,6.94,0,0,1-1-1.61,3.69,3.69,0,0,1-.31-2,4.07,4.07,0,0,1,.78-1.88,4.5,4.5,0,0,1,3.72-1.68,17.88,17.88,0,0,1,6.42,1.35,2.56,2.56,0,0,0,0-1.79,3.62,3.62,0,0,0-1.29-1.55,5.11,5.11,0,0,0-2.17-.95,5.59,5.59,0,0,0-2.39.14l-.19-1.07a8.2,8.2,0,0,1,4.14-.49,9,9,0,0,1,4,1.74,5.64,5.64,0,0,1,2.13,2.92,8.31,8.31,0,0,1,.09,4.12,15.45,15.45,0,0,1-1.2,3.65A18.41,18.41,0,0,1,309.29,123.44Zm-4-4.28c.52-.71,1-1.45,1.46-2.19a25.46,25.46,0,0,0,1.22-2.31,23.64,23.64,0,0,0-2.51-.79,12.29,12.29,0,0,0-2.11-.38L301,119.25a13.77,13.77,0,0,0,1.7,1.09,4,4,0,0,0,1.35.46l.65-.81Zm3.33,2.36a1.36,1.36,0,0,0-1.29-2.14,1.34,1.34,0,0,0-1.14,1.55,1.36,1.36,0,0,0,.55.87,1.31,1.31,0,0,0,1,.26A1.33,1.33,0,0,0,308.62,121.52Zm1.85-3.54a1,1,0,0,0,.26-.79,1,1,0,0,0-.47-.67,1.07,1.07,0,0,0-.8-.26,1,1,0,0,0-.69.47,1,1,0,0,0-.24.8,1.05,1.05,0,0,0,.49.67,1,1,0,0,0,.78.26A1.06,1.06,0,0,0,310.47,118Z" transform="translate(-11.18 -7.38)" fill="#407bff"/><path d="M324.79,125.68a2.62,2.62,0,0,1-1.66.87,2,2,0,0,1-1.52-.72,2.39,2.39,0,0,1-.74-1.28,1.26,1.26,0,0,1,.44-1.09,1.17,1.17,0,0,1,.59-.31,1.52,1.52,0,0,1,.75.07l.07.53a.77.77,0,0,0-.27,0,.35.35,0,0,0-.19.1.51.51,0,0,0-.19.43.78.78,0,0,0,.26.46.89.89,0,0,0,.64.34,1,1,0,0,0,.66-.33,1.25,1.25,0,0,0,.35-.62,1.53,1.53,0,0,0,0-.79,2.31,2.31,0,0,0-.29-.67,3.9,3.9,0,0,0-1.29-1.27,3.05,3.05,0,0,0-.89-.32,2,2,0,0,0-1,0,2.11,2.11,0,0,0-.83.52,1.58,1.58,0,0,0-.45,1,4.87,4.87,0,0,0,.11,1.51c.21,1.06.38,1.88.5,2.43s.18.86.18.9a4.34,4.34,0,0,1-.22,1.84,3.77,3.77,0,0,1-.95,1.45,5.38,5.38,0,0,1-1.92,1.22,4.61,4.61,0,0,1-2.23.18,6.06,6.06,0,0,1-2.08-.68,7.41,7.41,0,0,1-1.89-1.44,6.23,6.23,0,0,1-1-1.29,6.13,6.13,0,0,1-.6-1.47,5.21,5.21,0,0,1-.2-1.6,5.32,5.32,0,0,1,.3-1.56l1.49.08a4.83,4.83,0,0,0-.2,2.49,4.17,4.17,0,0,0,1.12,2,2.67,2.67,0,0,0,1.81.88,2.33,2.33,0,0,0,1.82-.73,3.2,3.2,0,0,0,.8-1.22,4.8,4.8,0,0,0,.27-1.67c0-.54-.05-1.09-.08-1.65s-.07-1.1-.1-1.66a5.24,5.24,0,0,1,.32-1.69,3.76,3.76,0,0,1,.87-1.31,3.57,3.57,0,0,1,1.56-.91,3.91,3.91,0,0,1,1.84,0,5,5,0,0,1,1.66.63,8,8,0,0,1,1.51,1.23,7.45,7.45,0,0,1,1,1.23,4.9,4.9,0,0,1,.55,1.2,2.47,2.47,0,0,1-.69,2.62Zm-10.23-1a1.8,1.8,0,0,1-2.53,0,1.78,1.78,0,0,1-.5-1.28,1.79,1.79,0,1,1,3,1.32Z" transform="translate(-11.18 -7.38)" fill="#407bff"/><path d="M161.75,191.38l-1.32-.28a6.76,6.76,0,0,1-.39,1.23,6.15,6.15,0,0,1-.66,1.16l1.39,1-.67.86-1.38-1a7.48,7.48,0,0,1-1.22,1,7.06,7.06,0,0,1-1.42.73l.36,1.91-1.29.43-.42-2a8,8,0,0,1-1.94.09,5.82,5.82,0,0,1-1.74-.4l-.84,2-1.2-.61.91-1.76a12.2,12.2,0,0,1-1.14-.59,10.82,10.82,0,0,1-1-.66L146.44,196l-.86-1,1.19-1.31a8.16,8.16,0,0,1-1-1.27,10.83,10.83,0,0,1-.78-1.52l-1.92.54-.38-1.1,1.92-.63a10.75,10.75,0,0,1-.34-2.48,12.8,12.8,0,0,1,.23-2.64l-1.93-.09-.06-1.35,2.29.19a15.85,15.85,0,0,1,.86-2.27,15.13,15.13,0,0,1,1.18-2.07l-1.51-1.57,1-.94,1.3,1.41c.39-.41.77-.79,1.14-1.13s.74-.63,1.11-.9l-.92-2,1.1-.53.91,1.83a14.19,14.19,0,0,1,1.65-.76,9,9,0,0,1,1.59-.44l0-1.79,1.41,0-.12,1.65c.32,0,.64,0,1,.05a8.26,8.26,0,0,1,1,.14,7.58,7.58,0,0,1,1,.28,7.5,7.5,0,0,1,.91.42l.76-1.59,1.07.53-1,1.75a6,6,0,0,1,.89,1.1,6.89,6.89,0,0,1,.67,1.36l1.46-.6.49,1.3-1.6.53q.12.54.18,1a6.69,6.69,0,0,1,.09.78l-1.47.27a7.56,7.56,0,0,0-1.76-3,5.43,5.43,0,0,0-2.77-1.46,5.94,5.94,0,0,0-2.72,0,6.51,6.51,0,0,0-2.51,1.35,7.84,7.84,0,0,0-1.83,2.12,8.71,8.71,0,0,0-1,2.63,10.38,10.38,0,0,0-.22,3,7.13,7.13,0,0,0,.72,2.61,5.94,5.94,0,0,0,1.75,2.16,6.59,6.59,0,0,0,2.62,1.15,5,5,0,0,0,3.67-.51,4.31,4.31,0,0,0,2-3l1.4-.24a4.71,4.71,0,0,1,.21,1,7.46,7.46,0,0,1,.05,1.07l1.42.31Z" transform="translate(-11.18 -7.38)" fill="#407bff"/><path d="M178.7,194.76l-1.52,0c0,.08-.06.19-.11.34s-.08.26-.12.34a3,3,0,0,1-.33.64,2.51,2.51,0,0,1-.44.48l.85,1.28-1,.45-.72-1.24a3.7,3.7,0,0,1-.64.19c-.24.05-.49.09-.77.12l-.32-1.23a2.58,2.58,0,0,0,.53-.42,1.7,1.7,0,0,0,.31-.51,1,1,0,0,0-.06-1,2,2,0,0,0-1-.73,2.93,2.93,0,0,0-2.16.21,13.77,13.77,0,0,0-3.07,1.94l-2.69,7.6L161,200.7l7.08-12,2.33.39L169,193.12a14.39,14.39,0,0,1,1.27-.77,12.1,12.1,0,0,1,1.11-.53l-.07-1.55,1.11-.12,0,1.32a7.84,7.84,0,0,1,1.17-.11,5.19,5.19,0,0,1,1.12.12l.57-1.36,1,.48-.68,1.17a3.11,3.11,0,0,1,1.17.85,2.15,2.15,0,0,1,.5,1.18l1.5-.17Zm-13.33,5.13a1.2,1.2,0,0,0,0-.93,1.18,1.18,0,0,0-1.58-.61,1.18,1.18,0,0,0-.64.69,1.2,1.2,0,0,0-.05.94,1.27,1.27,0,0,0,.74.59,1.18,1.18,0,0,0,.95.05A1.21,1.21,0,0,0,165.37,199.89Zm1.36-3.32a.84.84,0,0,0-.56-1.22.89.89,0,0,0-.73,0,.93.93,0,0,0-.47.56,1,1,0,0,0,0,.74.94.94,0,0,0,.56.45,1,1,0,0,0,.76.06A1,1,0,0,0,166.73,196.57Z" transform="translate(-11.18 -7.38)" fill="#407bff"/><path d="M189.73,211.92l-.88.29c-.26.08-.49.14-.67.18l.24,2-1.18.08-.38-1.73a7,7,0,0,1-1.37,0,5.57,5.57,0,0,1-1.41-.34l-.8,1.53-1.14-.67.82-1.37a7.85,7.85,0,0,1-1.21-.77,11.25,11.25,0,0,1-1.24-1.1l-1.53,1.2-.85-1.23,1.54-1.06a7.41,7.41,0,0,1-.76-1.41,6.16,6.16,0,0,1-.4-1.53l-1.85.19-.12-1.23,1.93,0a7.8,7.8,0,0,1,.18-1.53,8.63,8.63,0,0,1,.46-1.47l-1.57-.35.17-1.35,2,.5a9.5,9.5,0,0,1,.89-1.21,5.12,5.12,0,0,1,.93-.84l-.88-1.4,1.1-.69.81,1.49a6,6,0,0,1,1.08-.37,6.06,6.06,0,0,1,1.11-.16l-.29-2.1,1.47,0,0,2.1c.33.05.61.11.87.17a6,6,0,0,1,.66.19l1.22-1.54.78.76-.92,1.24a3.9,3.9,0,0,1,1.63,1.48l1.94-.63.42,1-1.9.71a3.73,3.73,0,0,1,.2.93,5.53,5.53,0,0,1,0,1.08l1.79.27-.23,1.1L190.7,204a7,7,0,0,1-.14.72c-.07.25-.15.52-.24.8l-6.61-2-.07.14a8.33,8.33,0,0,0-.71,1.9,7.25,7.25,0,0,0-.19,1.91,4.21,4.21,0,0,0,.51,2,3.11,3.11,0,0,0,1.33,1.23,4.85,4.85,0,0,0,2.1.48,11,11,0,0,0,2.81-.39Zm-2.1-9.12a1.35,1.35,0,0,0,0-1.08,2,2,0,0,0-.92-.83,3.12,3.12,0,0,0-1.84-.29,2.9,2.9,0,0,0-1.66.81Z" transform="translate(-11.18 -7.38)" fill="#407bff"/><path d="M204.37,219.53l-.4.69a24.2,24.2,0,0,1-4.67-.81,19.49,19.49,0,0,1-4.09-1.67,9.54,9.54,0,0,1-1.82-1.26,6.87,6.87,0,0,1-1.23-1.46,3.62,3.62,0,0,1-.57-1.91,4,4,0,0,1,.53-2,4.53,4.53,0,0,1,3.47-2.16,18,18,0,0,1,6.54.5,2.66,2.66,0,0,0-.27-1.77,3.62,3.62,0,0,0-1.49-1.36,5.06,5.06,0,0,0-2.27-.66,5.56,5.56,0,0,0-2.36.45l-.32-1a8.18,8.18,0,0,1,4-1,9,9,0,0,1,4.17,1.19,5.7,5.7,0,0,1,2.5,2.62,8.35,8.35,0,0,1,.63,4.08,16.06,16.06,0,0,1-.71,3.77A19.55,19.55,0,0,1,204.37,219.53Zm-4.53-3.71c.42-.78.81-1.57,1.16-2.37s.64-1.62.9-2.45a24.25,24.25,0,0,0-2.58-.45,12.55,12.55,0,0,0-2.15-.1l-1.59,6a13.13,13.13,0,0,0,1.83.86,4,4,0,0,0,1.39.28c.19-.3.37-.6.54-.89Zm3.6,1.9a1.34,1.34,0,0,0-.53-1.83,1.35,1.35,0,0,0-1-.12,1.27,1.27,0,0,0-.82.65,1.29,1.29,0,0,0-.11,1,1.36,1.36,0,0,0,.66.79,1.3,1.3,0,0,0,1,.13A1.28,1.28,0,0,0,203.44,217.72Zm1.38-3.75a1.13,1.13,0,0,0,.16-.82,1.31,1.31,0,0,0-1.39-.76,1.1,1.1,0,0,0-.62.56,1.06,1.06,0,0,0-.14.82,1.13,1.13,0,0,0,.58.61,1.05,1.05,0,0,0,.81.15A1.07,1.07,0,0,0,204.82,214Z" transform="translate(-11.18 -7.38)" fill="#407bff"/><path d="M219,226.17a9.8,9.8,0,0,1-4,.85,7.45,7.45,0,0,1-3.61-1,6.81,6.81,0,0,1-3.36-4.15,6.55,6.55,0,0,1,.82-5.23,7.51,7.51,0,0,1,10.12-2.67,9,9,0,0,1,1.34.95,5.22,5.22,0,0,1,.95,1.07,2.87,2.87,0,0,1,.55,1.43,2.43,2.43,0,0,1-.34,1.37,2.26,2.26,0,0,1-1.24.94,6.93,6.93,0,0,1-2.24.3l-.25-.85a3.25,3.25,0,0,0,.76-.29,2.15,2.15,0,0,0,.58-.45l-1.29-1.26.5-.44,1.25,1a1.31,1.31,0,0,0,.11-.7,1.76,1.76,0,0,0-.25-.74,2.53,2.53,0,0,0-.44-.58,3.61,3.61,0,0,0-.61-.46l-.38-.19-.43-.19-.86,2.14-.67-.2.49-2a3.41,3.41,0,0,0-1.45.18,4.16,4.16,0,0,0-1.37.79l1.44,1.54-.63.5L213,216.31a3.68,3.68,0,0,0-.56.6,7.87,7.87,0,0,0-.59.88,3.67,3.67,0,0,0-.25.48,3.75,3.75,0,0,0-.17.47l1.73.34,0,1-2-.39a4.37,4.37,0,0,0-.1,1,8.5,8.5,0,0,0,.11,1.17l1.67-.22.3.78-1.56.38a3.2,3.2,0,0,0,.65,1,5,5,0,0,0,1.1.86l1-1.42.66.39-.72,1.53a4.43,4.43,0,0,0,1,.33,5.65,5.65,0,0,0,1.12.12l.28-1.53.71.12-.11,1.31a4.75,4.75,0,0,0,.68-.13,8.05,8.05,0,0,0,.79-.26Z" transform="translate(-11.18 -7.38)" fill="#407bff"/><path d="M223.56,234.5l-4.94-3.77,9.09-11.22,2.39,1.38Zm.29-4a1.35,1.35,0,0,0-.51-1.85,1.31,1.31,0,0,0-1-.13,1.29,1.29,0,0,0-.81.63,1.26,1.26,0,0,0-.13,1,1.28,1.28,0,0,0,.62.8,1.34,1.34,0,0,0,1,.15A1.27,1.27,0,0,0,223.85,230.52Zm2-3.44a1.09,1.09,0,0,0,.17-.8,1,1,0,0,0-.55-.62,1.12,1.12,0,0,0-.83-.18,1.07,1.07,0,0,0-.61.55,1,1,0,0,0-.17.81,1.36,1.36,0,0,0,1.38.8A1.12,1.12,0,0,0,225.83,227.08Zm7.44-8.44-.76.59-.78-1.2a1.93,1.93,0,0,1-.6.14,1.77,1.77,0,0,1-.6-.08l-.35,1.19-.93-.37.41-1.22a1.64,1.64,0,0,1-.32-.37,3.42,3.42,0,0,1-.23-.47l-1.28.3-.2-1L229,216a1.47,1.47,0,0,1,.15-.59,2,2,0,0,1,.37-.55l-.72-1.36.81-.44.63,1.31a2.12,2.12,0,0,1,.54-.13,2.28,2.28,0,0,1,.57.05l.65-1.62.81.47-.75,1.42a3.45,3.45,0,0,1,.43.42,2.41,2.41,0,0,1,.3.48l1.3-.2.25.92-1.41.1a1.23,1.23,0,0,1-.11.51,6.45,6.45,0,0,1-.4.76Z" transform="translate(-11.18 -7.38)" fill="#407bff"/><path d="M246.28,235.22l-1.87-.36c-.06.18-.12.37-.2.57s-.16.4-.26.61a7.84,7.84,0,0,1-.52.9,8.46,8.46,0,0,1-.65.83l1,1.25-1.24.83-.68-1.25a6.47,6.47,0,0,1-2.18,1.18,6.58,6.58,0,0,1-2.44.26l-.4,1.75-1.36-.29.52-1.66-.74-.23c-.2-.08-.38-.15-.52-.22a6.72,6.72,0,0,1-1.45-.95,5.89,5.89,0,0,1-1.15-1.33l-1.72,1L229.7,237l1.88-1a6.09,6.09,0,0,1-.45-1.43,6.8,6.8,0,0,1-.1-1.5l-1.89-.29.31-1.24,1.65.4a8.63,8.63,0,0,1,.29-1,7.9,7.9,0,0,1,.34-.85,8.13,8.13,0,0,1,.44-.77,4.92,4.92,0,0,1,.51-.67l-1.23-1.19.85-1,1.2,1.36a6.93,6.93,0,0,1,1.54-1.06,6.53,6.53,0,0,1,1.75-.57l-.2-1.82,1.35-.2.15,1.91a6.48,6.48,0,0,1,1.46.17,6.62,6.62,0,0,1,1.39.5,6.29,6.29,0,0,1,1.23.78,6.42,6.42,0,0,1,1,1l1.31-.92.74,1.08-1.33.93a7.05,7.05,0,0,1,.69,2,8.14,8.14,0,0,1,.12,2.11l1.95.07Zm-6-1a7.65,7.65,0,0,0,.59-1.6,4.7,4.7,0,0,0,.11-1.53,3.3,3.3,0,0,0-.49-1.53,2.81,2.81,0,0,0-1.18-1,3,3,0,0,0-1.52-.31,3.17,3.17,0,0,0-1.52.57,5.47,5.47,0,0,0-1.13,1,7.25,7.25,0,0,0-.9,1.43,7.65,7.65,0,0,0-.6,1.64,5,5,0,0,0-.12,1.52A3.11,3.11,0,0,0,234,236a3.07,3.07,0,0,0,1.2,1,3.11,3.11,0,0,0,1.54.33,3,3,0,0,0,1.5-.58,5.35,5.35,0,0,0,1.11-1A7.81,7.81,0,0,0,240.26,234.24Z" transform="translate(-11.18 -7.38)" fill="#407bff"/><path d="M260.83,248.92l-5.63-1.06c1.13-2.77,1.91-4.66,2.32-5.66s.67-1.64.76-1.9a3.77,3.77,0,0,0,.32-2.06,1.47,1.47,0,0,0-1-1.11,2.8,2.8,0,0,0-1.9.08,10,10,0,0,0-2.59,1.44L250,245.59l-2.6-.61,3.3-13.12,5,.8-1.7,3.86a8.3,8.3,0,0,1,2.93-1.23,4.94,4.94,0,0,1,2.65.21,3.63,3.63,0,0,1,2.22,2.26,8.65,8.65,0,0,1,.13,4.29Zm-1-2.69a1.1,1.1,0,0,0,0-.92,1.2,1.2,0,0,0-.67-.62,1.25,1.25,0,0,0-1-.05,1.23,1.23,0,0,0-.6.72,1.27,1.27,0,0,0,0,.95,1.28,1.28,0,0,0,.75.61,1.22,1.22,0,0,0,.92,0A1.12,1.12,0,0,0,259.84,246.23Zm.76-3.54a.93.93,0,0,0,0-.73,1,1,0,0,0-.57-.48.85.85,0,0,0-1.22.54,1,1,0,0,0,0,.77,1,1,0,0,0,.58.48,1,1,0,0,0,.74,0A1,1,0,0,0,260.6,242.69Z" transform="translate(-11.18 -7.38)" fill="#407bff"/><path d="M280.87,252.65l-.77.51c-.23.15-.42.27-.59.36l.77,1.81-1.12.4-.83-1.56a7.52,7.52,0,0,1-1.34.34,5.72,5.72,0,0,1-1.44.06l-.36,1.69-1.27-.33.41-1.55A8.11,8.11,0,0,1,273,254a13.29,13.29,0,0,1-1.49-.71l-1.14,1.57-1.16-1,1.19-1.44a7.6,7.6,0,0,1-1.12-1.15,6.09,6.09,0,0,1-.8-1.35l-1.73.68-.45-1.14,1.85-.56a8.41,8.41,0,0,1-.2-3l-1.62.09-.2-1.35,2.07-.06a9.52,9.52,0,0,1,.52-1.41,5.58,5.58,0,0,1,.67-1.07l-1.23-1.1.87-1,1.18,1.21a6,6,0,0,1,2-1.12l-.85-1.94,1.42-.38.6,2c.32,0,.61-.06.87-.07h.69l.75-1.81,1,.51-.54,1.44a4.57,4.57,0,0,1,1.06.36,4,4,0,0,1,.91.62l1.69-1.14.68.83-1.63,1.21a4.54,4.54,0,0,1,.45.85,5.17,5.17,0,0,1,.3,1l1.8-.24.08,1.13-1.73.24c0,.23.05.47.06.73s0,.54,0,.84l-6.91-.12,0,.16a8.82,8.82,0,0,0-.16,2,7.24,7.24,0,0,0,.35,1.89,4.23,4.23,0,0,0,1,1.74,3.17,3.17,0,0,0,1.62.82,4.84,4.84,0,0,0,2.15-.12,10.33,10.33,0,0,0,2.59-1.15Zm-4.53-8.2a1.28,1.28,0,0,0-.28-1,1.91,1.91,0,0,0-1.11-.54,3,3,0,0,0-1.85.22,2.84,2.84,0,0,0-1.37,1.23Z" transform="translate(-11.18 -7.38)" fill="#407bff"/><path d="M296,243.25a2.63,2.63,0,0,1-.6,1.77,2,2,0,0,1-1.61.53,2.34,2.34,0,0,1-1.41-.43,1.25,1.25,0,0,1-.43-1.09,1.07,1.07,0,0,1,.22-.63,1.5,1.5,0,0,1,.59-.47l.41.34a.87.87,0,0,0-.17.22.44.44,0,0,0-.07.2.49.49,0,0,0,.16.44.78.78,0,0,0,.5.16,1,1,0,0,0,.7-.19,1,1,0,0,0,.25-.7,1.26,1.26,0,0,0-.16-.69,1.67,1.67,0,0,0-.57-.55,2.4,2.4,0,0,0-.67-.3,3.84,3.84,0,0,0-.8-.12,3.64,3.64,0,0,0-1,.1,2.84,2.84,0,0,0-.86.37,2,2,0,0,0-.66.7,2.22,2.22,0,0,0-.25.94,1.58,1.58,0,0,0,.35,1,4.76,4.76,0,0,0,1.12,1c.89.63,1.57,1.1,2,1.42s.71.5.74.54a4.39,4.39,0,0,1,1.11,1.47,3.77,3.77,0,0,1,.3,1.71,5.12,5.12,0,0,1-.56,2.21,4.58,4.58,0,0,1-1.48,1.66,6.18,6.18,0,0,1-2,.94,7.2,7.2,0,0,1-2.36.25,6,6,0,0,1-1.59-.27,6.45,6.45,0,0,1-1.45-.65,5.41,5.41,0,0,1-1.24-1,5.68,5.68,0,0,1-.86-1.34l1.14-1a4.69,4.69,0,0,0,1.57,1.94,4.13,4.13,0,0,0,2.22.72,2.7,2.7,0,0,0,1.92-.6,2.32,2.32,0,0,0,.82-1.78,3.28,3.28,0,0,0-.26-1.44,4.89,4.89,0,0,0-.95-1.4l-1.19-1.14L287.7,247a4.82,4.82,0,0,1-.93-1.45,3.41,3.41,0,0,1-.27-1.55,3.54,3.54,0,0,1,.5-1.73,4.07,4.07,0,0,1,1.31-1.3,4.9,4.9,0,0,1,1.63-.68,7.61,7.61,0,0,1,1.94-.15,7.12,7.12,0,0,1,1.56.23,4.65,4.65,0,0,1,1.22.5,2.54,2.54,0,0,1,1,1A2.64,2.64,0,0,1,296,243.25Zm-8.13,6.29a1.72,1.72,0,0,1-.58,1.24,1.77,1.77,0,0,1-1.29.47,1.78,1.78,0,0,1-1.12-3.1,1.68,1.68,0,0,1,1.28-.47,1.71,1.71,0,0,1,1.24.58A1.74,1.74,0,0,1,287.83,249.54Z" transform="translate(-11.18 -7.38)" fill="#407bff"/></svg>